<?xml version="1.0" encoding="UTF-8" standalone="no"?>
<!DOCTYPE svg PUBLIC "-//W3C//DTD SVG 1.1//EN" "http://www.w3.org/Graphics/SVG/1.1/DTD/svg11.dtd">
<svg width="100%" height="100%" viewBox="0 0 1112 175" version="1.1" xmlns="http://www.w3.org/2000/svg" xmlns:xlink="http://www.w3.org/1999/xlink" xml:space="preserve" xmlns:serif="http://www.serif.com/" style="fill-rule:evenodd;clip-rule:evenodd;stroke-linejoin:round;stroke-miterlimit:2;">
    <g transform="matrix(1,0,0,1,-330.467,-211.145)">
        <path d="M348.867,274.912C349.579,271.534 350.334,267.179 351.134,261.845C351.934,256.512 352.512,251.712 352.867,247.445L393.667,247.445C393.49,249.579 393.179,252.645 392.734,256.645C392.29,260.645 391.89,263.979 391.534,266.645L392.067,266.645C394.023,263.801 396.334,261.001 399.001,258.245C401.667,255.49 404.645,253.045 407.934,250.912C411.223,248.779 414.912,247.09 419.001,245.845C423.09,244.601 427.534,243.979 432.334,243.979C442.823,243.979 451.223,246.156 457.534,250.512C463.845,254.868 468.245,260.512 470.734,267.445C475.89,260.512 482.023,254.868 489.134,250.512C496.245,246.156 504.779,243.979 514.734,243.979C522.379,243.979 528.956,245.134 534.467,247.445C539.979,249.756 544.556,252.868 548.201,256.779C551.845,260.69 554.512,265.179 556.201,270.245C557.89,275.312 558.734,280.512 558.734,285.845C558.734,287.979 558.645,290.112 558.467,292.245C558.29,294.379 558.023,296.423 557.667,298.379L543.001,380.245L500.334,380.245L512.867,308.245C513.756,304.156 514.201,300.423 514.201,297.045C514.201,291.89 512.867,287.579 510.201,284.112C507.534,280.645 503.09,278.912 496.867,278.912C493.134,278.912 489.756,279.756 486.734,281.445C483.712,283.134 481.045,285.356 478.734,288.112C476.423,290.868 474.556,294.068 473.134,297.712C471.712,301.356 470.645,305.045 469.934,308.779L457.401,380.245L414.467,380.245L427.801,304.245C428.334,301.579 428.601,299.09 428.601,296.779C428.601,291.623 427.312,287.356 424.734,283.979C422.156,280.601 418.112,278.912 412.601,278.912C405.312,278.912 399.401,281.801 394.867,287.579C390.334,293.356 387.356,300.245 385.934,308.245L373.134,380.245L330.467,380.245L348.867,274.912Z" style="fill-rule:nonzero;"/>
        <path d="M665.667,361.045C661.579,367.445 655.934,372.823 648.734,377.179C641.534,381.534 633.312,383.712 624.067,383.712C616.779,383.712 610.467,382.601 605.134,380.379C599.801,378.156 595.401,375.179 591.934,371.445C588.467,367.712 585.934,363.401 584.334,358.512C582.734,353.623 581.934,348.512 581.934,343.179C581.934,340.868 582.023,338.512 582.201,336.112C582.379,333.712 582.734,331.268 583.267,328.779L597.401,247.445L640.334,247.445L627.534,319.445C627.179,321.401 626.912,323.312 626.734,325.179C626.556,327.045 626.467,328.868 626.467,330.645C626.467,335.445 627.756,339.623 630.334,343.179C632.912,346.734 637.49,348.512 644.067,348.512C647.979,348.512 651.49,347.712 654.601,346.112C657.712,344.512 660.423,342.379 662.734,339.712C665.045,337.045 667.001,333.934 668.601,330.379C670.201,326.823 671.356,323.09 672.067,319.179L684.867,247.445L727.534,247.445L708.867,352.779C708.156,356.156 707.401,360.512 706.601,365.845C705.801,371.179 705.223,375.979 704.867,380.245L664.334,380.245C664.512,378.112 664.823,375.045 665.267,371.045C665.712,367.045 666.112,363.712 666.467,361.045L665.667,361.045Z" style="fill-rule:nonzero;"/>
        <path d="M802.467,266.645C806.734,260.068 812.423,254.645 819.534,250.379C826.645,246.112 834.823,243.979 844.067,243.979C851.534,243.979 857.934,245.045 863.267,247.179C868.601,249.312 873.001,252.245 876.467,255.979C879.934,259.712 882.467,264.023 884.067,268.912C885.667,273.801 886.467,278.912 886.467,284.245C886.467,286.734 886.379,289.179 886.201,291.579C886.023,293.979 885.667,296.334 885.134,298.645L870.734,380.245L828.067,380.245L840.601,308.245C841.49,304.156 841.934,300.423 841.934,297.045C841.934,292.068 840.645,287.845 838.067,284.379C835.49,280.912 830.912,279.179 824.334,279.179C820.423,279.179 816.912,279.934 813.801,281.445C810.69,282.956 807.934,285.045 805.534,287.712C803.134,290.379 801.179,293.49 799.667,297.045C798.156,300.601 797.045,304.334 796.334,308.245L783.534,380.245L740.867,380.245L759.267,274.912C759.979,271.534 760.734,267.179 761.534,261.845C762.334,256.512 762.912,251.712 763.267,247.445L804.067,247.445C803.89,249.579 803.579,252.601 803.134,256.512C802.69,260.423 802.29,263.801 801.934,266.645L802.467,266.645Z" style="fill-rule:nonzero;"/>
        <path d="M975.001,383.979C965.401,383.979 956.467,382.645 948.201,379.979C939.934,377.312 932.823,373.445 926.867,368.379C920.912,363.312 916.201,357.179 912.734,349.979C909.267,342.779 907.534,334.645 907.534,325.579C907.534,314.556 909.401,304.068 913.134,294.112C916.867,284.156 922.245,275.445 929.267,267.979C936.29,260.512 944.779,254.556 954.734,250.112C964.69,245.668 975.979,243.445 988.601,243.445C998.379,243.445 1007.45,244.779 1015.8,247.445C1024.16,250.112 1031.36,253.979 1037.4,259.045C1043.44,264.112 1048.2,270.245 1051.67,277.445C1055.13,284.645 1056.87,292.779 1056.87,301.845C1056.87,313.045 1055,323.623 1051.27,333.579C1047.53,343.534 1042.11,352.245 1035,359.712C1027.89,367.179 1019.31,373.09 1009.27,377.445C999.223,381.801 987.801,383.979 975.001,383.979ZM1014.73,306.379C1014.73,298.379 1012.29,291.712 1007.4,286.379C1002.51,281.045 995.623,278.379 986.734,278.379C981.045,278.379 975.89,279.534 971.267,281.845C966.645,284.156 962.734,287.268 959.534,291.179C956.334,295.09 953.845,299.623 952.067,304.779C950.29,309.934 949.401,315.356 949.401,321.045C949.401,329.045 951.801,335.668 956.601,340.912C961.401,346.156 968.245,348.779 977.134,348.779C982.823,348.779 987.979,347.668 992.601,345.445C997.223,343.223 1001.18,340.156 1004.47,336.245C1007.76,332.334 1010.29,327.801 1012.07,322.645C1013.85,317.49 1014.73,312.068 1014.73,306.379Z" style="fill-rule:nonzero;"/>
        <path d="M1071.8,279.712L1077.67,247.445L1098.73,247.445L1104.87,212.245L1146.47,212.245L1140.33,247.445L1168.6,247.445L1162.73,279.712L1135.27,279.712L1125.67,331.712C1125.49,332.956 1125.36,334.245 1125.27,335.579C1125.18,336.912 1125.13,338.023 1125.13,338.912C1125.13,343.356 1126.38,346.379 1128.87,347.979C1131.36,349.579 1134.73,350.379 1139,350.379C1141.13,350.379 1143.22,350.201 1145.27,349.845C1147.31,349.49 1149.13,349.134 1150.73,348.779L1146.73,379.445C1144.25,380.512 1140.73,381.445 1136.2,382.245C1131.67,383.045 1127.36,383.445 1123.27,383.445C1110.47,383.445 1100.38,380.868 1093,375.712C1085.62,370.556 1081.93,362.379 1081.93,351.179C1081.93,349.045 1082.07,346.601 1082.33,343.845C1082.6,341.09 1083,338.468 1083.53,335.979L1093.67,279.712L1071.8,279.712Z" style="fill-rule:nonzero;"/>
        <path d="M1211.53,325.312C1211.36,326.023 1211.27,326.823 1211.27,327.712C1211.27,331.445 1212.11,334.779 1213.8,337.712C1215.49,340.645 1217.71,343.134 1220.47,345.179C1223.22,347.223 1226.33,348.779 1229.8,349.845C1233.27,350.912 1236.87,351.445 1240.6,351.445C1247.36,351.445 1253.31,350.201 1258.47,347.712C1263.62,345.223 1268.25,341.845 1272.33,337.579L1299.27,358.645C1290.73,367.712 1281.22,374.245 1270.73,378.245C1260.25,382.245 1248.96,384.245 1236.87,384.245C1227.62,384.245 1219.05,382.956 1211.13,380.379C1203.22,377.801 1196.33,373.979 1190.47,368.912C1184.6,363.845 1179.98,357.579 1176.6,350.112C1173.22,342.645 1171.53,334.112 1171.53,324.512C1171.53,313.134 1173.53,302.512 1177.53,292.645C1181.53,282.779 1187.05,274.201 1194.07,266.912C1201.09,259.623 1209.49,253.89 1219.27,249.712C1229.05,245.534 1239.8,243.445 1251.53,243.445C1260.25,243.445 1268.2,244.69 1275.4,247.179C1282.6,249.668 1288.78,253.268 1293.93,257.979C1299.09,262.69 1303.09,268.512 1305.93,275.445C1308.78,282.379 1310.2,290.379 1310.2,299.445C1310.2,302.645 1309.89,306.69 1309.27,311.579C1308.64,316.468 1307.8,321.045 1306.73,325.312L1211.53,325.312ZM1272.07,299.179C1272.25,298.29 1272.33,297.401 1272.33,296.512L1272.33,293.845C1272.33,287.979 1270.25,283.09 1266.07,279.179C1261.89,275.268 1255.89,273.312 1248.07,273.312C1243.27,273.312 1238.96,274.156 1235.13,275.845C1231.31,277.534 1227.98,279.623 1225.13,282.112C1222.29,284.601 1219.98,287.356 1218.2,290.379C1216.42,293.401 1215.18,296.334 1214.47,299.179L1272.07,299.179Z" style="fill-rule:nonzero;"/>
        <path d="M1340.87,337.845C1344.25,342.823 1348.73,346.601 1354.33,349.179C1359.93,351.756 1365.67,353.045 1371.53,353.045C1377.22,353.045 1381.8,351.979 1385.27,349.845C1388.73,347.712 1390.47,344.779 1390.47,341.045C1390.47,337.49 1388.87,334.734 1385.67,332.779C1382.47,330.823 1377.76,328.868 1371.53,326.912C1365.31,325.134 1359.85,323.134 1355.13,320.912C1350.42,318.69 1346.47,316.112 1343.27,313.179C1340.07,310.245 1337.67,306.868 1336.07,303.045C1334.47,299.223 1333.67,294.734 1333.67,289.579C1333.67,282.29 1335.31,275.801 1338.6,270.112C1341.89,264.423 1346.25,259.579 1351.67,255.579C1357.09,251.579 1363.44,248.556 1370.73,246.512C1378.02,244.468 1385.67,243.445 1393.67,243.445C1403.98,243.445 1413.62,245.179 1422.6,248.645C1431.58,252.112 1438.73,257.223 1444.07,263.979L1417.13,286.645C1414.64,283.09 1411.22,280.156 1406.87,277.845C1402.51,275.534 1397.31,274.379 1391.27,274.379C1386.64,274.379 1382.42,275.268 1378.6,277.045C1374.78,278.823 1372.87,281.845 1372.87,286.112C1372.87,289.134 1374.29,291.49 1377.13,293.179C1379.98,294.868 1384.33,296.512 1390.2,298.112C1402.64,301.49 1412.47,306.156 1419.67,312.112C1426.87,318.068 1430.47,326.734 1430.47,338.112C1430.47,346.112 1428.73,353.09 1425.27,359.045C1421.8,365.001 1417.27,369.89 1411.67,373.712C1406.07,377.534 1399.67,380.379 1392.47,382.245C1385.27,384.112 1377.93,385.045 1370.47,385.045C1358.2,385.045 1347.27,383.001 1337.67,378.912C1328.07,374.823 1320.25,369.223 1314.2,362.112L1340.87,337.845Z" style="fill-rule:nonzero;"/>
    </g>
</svg>
